<svg width="60" height="60" viewBox="0 0 60 60" fill="none" xmlns="http://www.w3.org/2000/svg">
<rect width="60" height="60" rx="12" fill="#393433"/>
<path d="M31.3333 20.6666C31.3333 19.9303 30.7363 19.3333 29.9999 19.3333C29.2635 19.3333 28.6666 19.9303 28.6666 20.6666V28.6666H20.6666C19.9302 28.6666 19.3333 29.2636 19.3333 30C19.3333 30.7364 19.9302 31.3333 20.6666 31.3333H28.6666V39.3333C28.6666 40.0697 29.2635 40.6666 29.9999 40.6666C30.7363 40.6666 31.3333 40.0697 31.3333 39.3333V31.3333H39.3333C40.0696 31.3333 40.6666 30.7364 40.6666 30C40.6666 29.2636 40.0696 28.6666 39.3333 28.6666H31.3333V20.6666Z" fill="white"/>
</svg>
